# xmcd CD database file
#
# Track frame offsets:
#	150
#	16100
#	37870
#	55200
#	70575
#	94310
#	106775
#	145770
#	163590
#	180375
#	211745
#	233465
#	251030
#	266240
#
# Disc length: 3698 seconds
#
# Revision: 5
# Processed by: cddbd v1.5.2PL0 Copyright (c) Steve Scherf et al.
# Submitted via: CDex 1.70beta2
#
DISCID=ad0e700e
DTITLE=Anna Jopek and Pat Metheny - Upojenie
DYEAR=2002
DGENRE=Jazz
TTITLE0=Cichy zapada zmrok
TTITLE1=Przypływ, odpływ, oddech czasu
TTITLE2=Tam, gdzie nie sięga wzrok
TTITLE3=Biel
TTITLE4=Czarne słowa
TTITLE5=Letter From Home
TTITLE6=Are You Going With Me?
TTITLE7=Zupełnie inna Ja
TTITLE8=Mania mienia
TTITLE9=By on byc tu
TTITLE10=Upojenie
TTITLE11=Piosenka dla Stasia
TTITLE12=Me jedyne niebo
TTITLE13=Polskie Drogi
EXTD=YEAR: 2002
EXTT0=
EXTT1=
EXTT2=
EXTT3=
EXTT4=
EXTT5=
EXTT6=
EXTT7=
EXTT8=
EXTT9=
EXTT10=
EXTT11=
EXTT12=
EXTT13=
PLAYORDER=
